<?xml version="1.0" standalone="no"?>
<!DOCTYPE svg PUBLIC "-//W3C//DTD SVG 20010904//EN"
 "http://www.w3.org/TR/2001/REC-SVG-20010904/DTD/svg10.dtd">
<svg version="1.0" xmlns="http://www.w3.org/2000/svg"
 width="384.000000pt" height="334.000000pt" viewBox="0 0 384.000000 334.000000"
 preserveAspectRatio="xMidYMid meet">

<g transform="translate(0.000000,334.000000) scale(0.100000,-0.100000)"
fill="#000000" stroke="none">
<path d="M1055 2954 c-97 -21 -220 -83 -307 -153 -334 -271 -480 -825 -332
-1268 110 -330 345 -648 779 -1052 149 -139 193 -171 231 -171 52 0 84 36 84
96 0 53 15 36 -214 244 -431 391 -672 737 -742 1065 -21 96 -20 282 1 386 64
316 239 553 468 638 173 63 418 23 578 -96 73 -54 167 -157 208 -229 49 -84
59 -94 98 -94 51 0 66 12 112 90 90 150 243 277 396 327 101 32 277 38 363 11
296 -94 512 -451 512 -848 0 -349 -173 -663 -605 -1096 -239 -240 -284 -281
-375 -339 -89 -57 -133 -76 -204 -87 -139 -24 -223 43 -273 215 -12 40 -17
125 -20 360 -5 304 -5 309 -28 335 l-23 27 -171 3 -171 3 0 115 0 114 169 0
169 0 26 31 c26 30 26 31 26 215 l0 184 105 0 105 0 0 -184 c0 -184 0 -185 26
-215 l26 -31 169 0 169 0 0 -115 0 -115 -166 0 -166 0 -29 -29 -29 -29 0 -262
0 -262 29 -29 c46 -46 106 -37 136 21 12 23 15 68 15 210 l0 180 170 0 c239 0
230 -13 230 322 0 312 3 308 -237 308 l-163 0 0 185 0 185 -29 32 -29 33 -226
0 -226 0 -27 -28 -28 -27 -3 -190 -3 -189 -170 -3 -171 -3 -24 -28 c-24 -28
-24 -28 -24 -278 0 -254 3 -279 39 -306 11 -9 67 -12 182 -13 l167 0 5 -252
c4 -215 7 -265 25 -329 91 -335 340 -452 647 -305 97 47 173 103 319 235 492
445 751 822 832 1211 22 101 24 330 5 430 -68 361 -263 659 -512 781 -109 54
-171 70 -295 76 -266 13 -517 -99 -690 -311 l-48 -58 -24 28 c-186 224 -389
331 -647 340 -85 3 -140 -1 -190 -12z"/>
</g>
</svg>
